<svg xmlns:dc="http://purl.org/dc/elements/1.1/" xmlns:cc="http://creativecommons.org/ns#" xmlns:rdf="http://www.w3.org/1999/02/22-rdf-syntax-ns#" xmlns:svg="http://www.w3.org/2000/svg" xmlns="http://www.w3.org/2000/svg" viewBox="0 0 704 704" fill="none" width="60" height="60"><metadata><rdf:RDF><cc:Work><dc:format>image/svg+xml</dc:format><dc:type rdf:resource="http://purl.org/dc/dcmitype/StillImage"/><dc:title>Open Peeps</dc:title><dc:creator><cc:Agent><dc:title>Pablo Stanley</dc:title></cc:Agent></dc:creator><dc:source>https://www.openpeeps.com/</dc:source><cc:license rdf:resource="https://creativecommons.org/publicdomain/zero/1.0/"/></cc:Work><cc:License rdf:about="https://creativecommons.org/publicdomain/zero/1.0/"><cc:permits rdf:resource="https://creativecommons.org/ns#Reproduction"/><cc:permits rdf:resource="https://creativecommons.org/ns#Distribution"/><cc:permits rdf:resource="https://creativecommons.org/ns#DerivativeWorks"/></cc:License></rdf:RDF></metadata><mask id="avatarsRadiusMask"><rect width="704" height="704" rx="0" ry="0" x="0" y="0" fill="#fff"/></mask><g mask="url(#avatarsRadiusMask)"><g fill-rule="evenodd" clip-rule="evenodd"><path d="M705.281 1074.02a2351.117 2351.117 0 0 1-11.084-68.46c-1.594-10.86-3.149-21.73-4.547-32.618-.979-7.628-2.47-16.351 2.72-22 7.303-7.952 13.937-14.758 14.831-26.149.841-10.717-2.783-22.4-5.049-32.803-4.752-21.816-10.668-43.362-17.205-64.704-6.641-21.683-13.923-43.162-21.31-64.6-6.906-20.044-13.545-40.269-22.54-59.5-17.071-36.495-45.951-63.522-81.643-81.568-8.877-4.488-26.983-20.51-36.257-24.097-8.526-3.298-8.495 6.333-16.886 2.705-6.708-2.9-12.954-6.767-16.71-13.244-4.078-7.033-14.305-16.869-15.862-25.055-3.299-17.351.275-32.12-12.109-45.179-10.994-11.597-25.771-19.542-41.061-23.807-33.636-9.381-78.494-2.822-98.788 28.433-9.693 14.926-13.08 32.968-26.159 45.149-11.421 10.636-8.865 17.908-23.657 23.39-.838.311-23.546-4.56-24.384-4.248-16.182-3.463-31.648 6.23-46.494 11.856-22.133 8.384-43.205 19.298-63.002 32.269-39.92 26.155-74.11 60.118-102.296 98.551-28.42 38.75-50.471 82.182-66.172 127.576a492.842 492.842 0 0 0-10.26 33.455c-1.69 6.307-3.497 12.849-1.438 19.305 1.684 5.283 5.43 9.216 9.829 12.385 5.963 4.297 17.924 7.09 17.69 15.732-.177 6.57-2.406 13.485-3.494 19.978-1.295 7.732-2.36 15.51-3.423 23.276-4.84 35.352-8.607 70.902-10.273 106.552-1.64 35.1-3.001 70.92-.566 106.01.16 2.31.85 4.44 1.964 6.23-1.04.4-1.12 2.34.174 2.61.906.19 1.81.39 2.716.58 1.882 1.42 4.229 2.29 6.93 2.38 1.83.06 3.66.14 5.49.23 19.3 4.04 38.599 7.85 58.152 10.74 23.768 3.5 47.606 6.36 71.518 8.69 49.135 4.78 97.883 3.19 147.083.62 49.124-2.58 98.219-3.18 147.394-1.9 49.218 1.28 98.418 3.42 147.647 4.3 54.999.98 109.914-.52 164.754-4.9 7.519-.59 12.171-6.58 10.688-14.04-8.885-44.75-18.954-89.19-26.911-134.13Z" fill="rgba(174, 93, 41, 1)"/><path d="m201.087 597.521 1.074-.414c14.518-5.671 29.628-14.822 45.421-11.442.558-.208 10.834 1.887 17.872 3.215l-6.68 6.973-11.79 2.268c40.673 67.128 88.778 100.692 144.314 100.692 55.537 0 97.678-33.564 126.425-100.692l3.923-1.085c.484.112 1 .271 1.552.485 9.274 3.587 27.379 19.608 36.256 24.096 35.692 18.047 64.572 45.073 81.643 81.569 8.695 18.59 15.189 38.108 21.85 57.494l.69 2.005c7.387 21.438 14.669 42.918 21.31 64.601 6.253 20.414 11.938 41.015 16.579 61.86l.626 2.844c2.266 10.403 5.89 22.085 5.049 32.803-.318 4.058-1.365 7.534-2.912 10.687l-80.446 28.947 38.326 261.393c-35.107 1.51-70.246 1.9-105.419 1.27-49.229-.88-98.429-3.02-147.647-4.3-47.685-1.24-95.294-.71-142.928 1.67l-12.097.62c-46.613 2.33-92.858 3.52-139.452-1.01l-3.175-.31v-38.24l16.367-212.911-82.945-15.613-81.422-39.546c-2.46-2.459-4.434-5.329-5.532-8.773-1.907-5.98-.498-12.033 1.064-17.905l.375-1.4a492.842 492.842 0 0 1 10.26-33.455c15.7-45.394 37.751-88.827 66.171-127.576 28.187-38.433 62.377-72.396 102.296-98.552 19.797-12.97 40.869-23.884 63.002-32.268Z" fill="rgba(157, 218, 219, 1)"/><path d="M232.235 584.564c5.086-.221 10.272.602 15.346 1.101.442.043.61.725.112.829-9.08 1.897-18.062 4.492-26.98 7.128l-3.819 1.13c-10.057 2.975-19.819 6.044-29.555 10.012-19.404 7.908-37.833 18.582-54.794 30.845C67.233 682.83 19.963 754.324-9.867 828.345a525.982 525.982 0 0 0-20.525 61.653 554.65 554.65 0 0 0-3.83 15.347c-.354 1.505-1.897 5.359-1.05 6.899.747 1.361 3.655 2.202 5.006 2.91l4.561 2.365c8.897 4.585 23.717 12.123 25.203 12.857l2.318 1.141c37.91 18.585 78.418 34.345 121.079 35.436l.334-3.643c1.902-20.141 4.398-40.389 9.846-59.911.293-1.049 1.628-.695 1.75.237 3.035 23.111 2.065 46.402 1.006 69.62-1.875 41.124-4.365 82.224-6.578 123.324-1.108 20.57-2.54 41.11-3.833 61.67-1.295 20.59-1.714 41.68-4.671 62.1-.659 4.55-5.991 7.03-10.029 6.55-4.468-.53-7.905-4.47-7.926-8.98-.054-11.9 1.441-23.94 2.272-35.8.789-11.28 1.636-22.55 2.504-33.82 3.172-41.13 6.821-82.21 10.196-123.33 1.196-14.58 2.488-29.147 3.818-43.715-45.193-1.457-87.414-18.196-127.692-37.754-.583 13.237-1.99 26.45-3.354 39.632-3.805 36.787-7.16 73.557-9.67 110.457-1.269 18.64-2.192 37.3-2.996 55.96a1708.912 1708.912 0 0 0-1.187 36.7l-.137 7.01c-.113 4.44-.564 8.55-4.3 11.78-3.796 3.29-8.922 3.46-12.678 0-5.028-4.63-4.139-10.93-3.99-17.15a1718.048 1718.048 0 0 1 1.775-47.18c1.886-36.64 5.655-73.13 10.58-109.47l1.922-14.03c3.59-26.08 7.532-52.754 15.558-77.877a1428.758 1428.758 0 0 1-9.345-4.691c-5.506-2.788-11.199-5.404-16.55-8.481-4.247-2.441-7.909-5.789-9.09-10.73-1.319-5.505.697-11.526 2.036-16.896l.116-.472a502.049 502.049 0 0 1 4.22-16.153c6.05-21.739 13.53-43.054 22.285-63.849 17.53-41.632 40.157-81.183 67.796-116.944 24.88-32.19 54.269-61.382 88.715-83.276 16.84-10.704 34.786-19.493 53.765-25.707 8.871-2.904 18.523-5.43 27.811-6.47 5.01-.56 10.027-.881 15.061-1.1Zm90.114-65.97c6.044-6.49 18.052.226 15.15 8.82-6.826 20.219-17.696 38.662-34.66 51.948-15.946 12.49-34.961 20.601-55.439 18.87a1.217 1.217 0 0 1-.416-.111l1.765 2.394c13.854 18.741 28.47 37.223 46.087 52.541 35.893 31.211 84.763 48.045 131.953 36.07 37.128-9.421 69.838-38.78 79.458-76.196-1.379.618-3.018.829-4.817.438-7.697-1.671-15.317-9.766-20.281-15.57-5.37-6.279-9.564-13.059-12.638-20.723-5.626-14.026-7.43-32.085.252-45.672.948-1.675 3.134-.736 3.32.899l.292 2.552c1.481 12.734 3.326 25.051 9.33 36.659 2.938 5.68 6.46 11.224 10.747 15.981 2.294 2.545 4.781 4.977 7.466 7.111 2.616 2.079 5.783 3.583 8.128 5.968l.43.458.012-.082c.593-5.041 4.128-7.262 7.587-7.123 3.347.135 7.279 1.608 8.802 2.314l.144.068c23.352 11.21 44.859 25.821 65.099 42.031 41.856 33.524 73.217 77.349 88.412 128.957 7.458 25.329 11.737 51.428 16.254 77.405l2.782 15.917c4.216 23.981 8.926 48.435 18.444 70.743 2.462 5.771.564 11.183-5.473 13.452-7.538 2.834-15.104 5.578-22.682 8.288 3.721 15.963 5.99 32.479 8.778 48.519 5.926 34.1 13.187 67.98 19.413 102.04 3.183 17.41 6.055 34.88 9.235 52.29 1.531 8.39 3.129 16.76 4.683 25.14.837 4.52 1.596 9.06 2.395 13.58l.139.76c.458 2.38 1.033 4.85.376 7.24-.749 2.73-2.876 4.65-4.775 6.61-1.563 1.61-3.822 1.62-5.737.74l-.63-.29c-3.42-1.6-6.1-3.2-7.313-7.06-.768-2.44-1.045-5.19-1.547-7.71-.963-4.82-1.876-9.66-2.738-14.5a3535.65 3535.65 0 0 1-5.052-29.1l-1.536-9.09c-5.27-31.33-10.275-62.85-12.805-94.51-1.123-14.05-2.312-28.08-3.513-42.12l-.901-10.524c-1.14-13.325-2.533-26.987-2.73-40.492l-4.532 1.609-22.11 7.816c-5.482 1.937-12.462 5.907-18.362 5.185-2.888-.354-5.09-1.263-6.79-2.915 2.036 28.733 4.792 57.421 8.465 85.951 3.342 25.97 7.047 51.9 11.423 77.71 2.167 12.78 4.394 25.55 6.813 38.29 1.209 6.37 2.457 12.73 3.743 19.08.641 3.17 1.404 6.35 1.904 9.54.572 3.66-.436 5.91-2.481 8.93-1.679 2.47-5.038 3.74-7.761 2.03-3.606-2.26-5.487-4.22-6.548-8.34-.964-3.75-1.55-7.65-2.296-11.44-1.377-7-2.708-14.01-3.993-21.02-2.687-14.68-5.164-29.38-7.376-44.14-7.795-51.97-12.741-104.37-15.239-156.859-1.233-25.897-1.614-51.817-1.395-77.741.112-13.288.546-26.614 1.486-39.869.952-13.417 2.932-26.566 4.7-39.854.062-.468.722-.495.75 0 .837 14.898 2.149 29.779 2.792 44.716.614 14.253.883 28.528 1.371 42.786.641 18.742 1.53 37.495 2.707 56.235 2.131-2.331 5.343-3.675 8.557-3.15 4.656-.977 9.668-3.42 14.107-4.903l16.734-5.59c8.797-2.938 17.594-5.856 26.422-8.686-7.893-26.553-13.3-53.502-17.917-80.844l-2.059-12.297c-4.075-24.204-8.47-48.419-15.852-71.858-7.761-24.642-19.375-47.552-34.782-68.299-15.187-20.447-33.664-38.451-52.688-55.291-16.287-14.416-33.71-27.432-50.322-41.452.174.929.211 1.952.058 3.076-3.532 25.85-17.017 49.923-35.81 67.828-37.755 35.971-93.642 43.434-141.964 26.566-46.743-16.316-88.07-54.958-102.671-102.775-.25-.818.846-1.143 1.286-.542.81 1.11 1.624 2.22 2.439 3.33-.055-.441.174-.921.718-1.131 17.036-6.578 33.765-15.907 46.535-29.104 6.224-6.433 11.656-13.721 15.944-21.581 2.054-3.765 3.899-7.664 5.371-11.693l.374-1.042c1.784-5.047 3.275-10.193 6.999-14.192Z" fill="#000"/></g><g transform="matrix(.99789 0 0 1 156 62)"><g fill-rule="evenodd" clip-rule="evenodd"><path d="M242.042 75.26c56.78 0 115.51 44.012 136.324 72.097 24.066 32.475 43.051 188.372 34.145 241.271-8.906 52.899-53.145 110.556-129.944 110.556-76.798 0-123.536-9.46-125.41-23.2-1.874-13.739-50.654-90.219-50.654-90.219s-49.89-14.032-50.085-47.551c-.194-33.519 26.735-45.714 26.735-45.714s-9.602-132.279 14.58-166.718c24.182-34.44 87.528-50.522 144.309-50.522Z" fill="rgba(174, 93, 41, 1)"/><path d="M275.105 8.19c8.928-1.966 12.56 11.847 3.744 13.38a207.515 207.515 0 0 0-18.053 3.968c2.438-.146 4.857.123 7.207.927l1.388-.484c19.237-6.66 40.109-11.686 60.334-6.566 16.584 11.959-24.134 13.788-30.698 15.368 21.909 1.326 44.666-3.633 65.953 4.273 8.167 3.255 4.921 15.824-9.616 10.024a7.545 7.545 0 0 1 .283 3.238c6.59.65 13.417 2.45 19.409 6.25 44.74-1.103 60.867 35.308 23.204 22.72a12.382 12.382 0 0 1 2.481 2.743l.59.043c9.98.803 36.342 6.546 34.939 18.485 6.913 1.509 14.449 4.053 19.677 8.182 5.851 4.621-.532 13.564-6.995 11.839-1.955-.523-3.779-1.359-5.569-2.278-.701.764-1.604 1.526-2.745 2.277 11.264 9.124 26.19 16.788 32.045 30.542 1.051 3.307-1.241 7.262-4.653 8.073-11.876 2.822-21.615-6.293-29.735-14.97 1.748 4.781 2.908 9.417 3.222 13.51 6.178 3.301 14.06 9.782 19.291 17.154 8.661 4.893 19.435 12.924 19.694 22.879.189 7.239-6.868 11.225-13.369 10.035l-.219-.05c3.099 5.348 4.64 11.137 5.68 17.53l.634.391c6.133 3.808 12.283 8.465 12.46 16.005.136 5.769-5.621 9.404-10.957 8.223a12.144 12.144 0 0 1-2.142-.693c.023.194.045.387.062.582 2.163 1.64 4.307 3.299 6.392 5.034l1.714 1.436c7.127 6.04 13.883 12.85 11.805 23.017-.71 3.48-4.246 5.289-7.477 5.609-.72.072-1.412.077-2.093.054l.276.721c4.48 11.925 7.327 30.963-7.079 29.323 2.256 19.463-9.534 22.358-17.594 12.58 9.497 11.293 26.789 82.76-3.42 70.055-1.331 15.969-4.267 32.153-11.58 46.597l-.212.475c-3.73 8.096-20.158 32.106-25.468 14.534 3.81-21.794 14.681-42.475 16.435-64.809-2.134-.333-3.956-2.398-4.748-4.675-2.299 11.447-7.572 21.686-14.822 30.762a109.632 109.632 0 0 1-3.866 9.042c-4.561 9.5-10.441 18.3-17.17 26.39-3.6 4.33-7.42 8.54-12.12 11.709-3.741 2.521-8.111 4.181-12.321 5.781-6.849 6.84-15.639 12.01-24.229 16.14-14.16 6.79-29.51 10.54-45.04 12.42-15.88 1.909-31.92 1.45-47.67-1.28-15.05-2.6-31.181-9.25-40.45-21.92-.8-1.09.689-2.12 1.669-1.67 26.901 12.45 57.13 15.7 86.451 11.77 13.679-1.83 27.139-5.61 39.63-11.48 10.54-4.95 19.429-12.15 28.889-18.67 1.841-2.45 3.7-4.86 5.821-7.1l3.309-3.47c2.473-2.606 4.901-5.248 7.11-8.1 6.821-8.79 12.47-18.76 16.201-29.25 7.255-20.419 5.293-42.585 4.011-63.865l-.111-1.875a934.468 934.468 0 0 0-5.291-58.899c-1.713-.556-3.355-1.515-4.704-2.694-5.337-33.28-20.722-67.287-46.71-89.735 15.223 21.18 23.86 45.26 25.652 71.473.31 4.554-5.93 4.503-7.387.986-14.465-37.8-21.829-78.576-66.071-93.357-17.56 23.707-25.237 52.49-40.022 77.586-3.743 5.845-11.89 3.044-12.501-3.335-1.721-17.989 5.522-35.845 14.512-51.582l-7.316 8.752c-56.345 67.538-60.95 77.624-54.898 181.086-.551 5.176-7.23 7.636-10.287 2.744-17.169-32.776-9.801-73.04-4.9-108.067a314.867 314.867 0 0 0-5.076 10.48c-1.109-3.585-3.06.399-2.596 5.712-2.98 6.714-5.792 13.623-8.33 20.667.161 22.425 7.625 43.865 7.64 66.255.504 6.252-7.961 7.22-10.994 2.934-2.589-3.659-4.996-7.186-7.088-10.911.299 9.353 4.074 17.656 6.671 26.411 1.773 3.122 2.586 6.37 1.431 9.888l-.118.342c-1.902 5.772-8.867 7.001-13.253 3.051.096 3.652-.23 7.333-1.34 10.776 4.678 6.009 8.98 12.239 12.174 19.154 1.831 4.294-.643 7.874-4.23 9.609 2.996 7.477 4.233 15.214 1.622 22.614-.78 2.23-4.04 3.03-5.311.69-4.17-7.7-6.5-16.18-10.46-23.97a112.042 112.042 0 0 0-2.288-4.254c-4.444-3.772-8.062-8.345-11.485-13.175-12.274 14.424-23.88-16.489-26.077-25.898l-.981-.907c2.379 22.31 15.687 42.716 15.905 65.115-.478 4.667-5.595 8.964-10.31 5.829-16.35-12.215-19.832-34.308-24.362-52.847a7.714 7.714 0 0 1-2.285.694c-.862 12.543 28.402 53.098 4.694 53.159-26.245-13.237-23.272-51.408-26.797-76.155-1.604 7.369-.188 19.475-5.563 24.819 22.805 55.378-15.56 37.715-25.024-3.728-1.15 1.674-2.532 3.195-4.217 4.499-3.446 2.667-8.006 2.581-10.536-1.337-5.208-8.065-3.363-17.634-1.177-26.522-20.232-8.743-28.906-28.974-30.454-50.428a24.61 24.61 0 0 1-1.7 2.242c-2.424 2.815-7.31 1.812-9.042-1.148-5.062-8.653-2.6-19.668 1.65-28.986-1.35-.566-2.552-1.432-3.352-2.573-6.929-11.373-9.067-24.219-8.349-37.265a22.474 22.474 0 0 1-3.087 2.58c-3.422 2.356-7.773-.208-8.945-3.586-3.792-10.93 4.755-21.978 11.956-29.382 2.533-2.604 5.417-5.089 8.562-7.194 1.5-4.109 3.11-8.103 4.76-11.928-2.416-4.842-3.788-10.042-4.341-15.419-2.047 3.318-4.595 6.273-8.29 8.511-3.43 2.079-7.368-.666-7.589-4.29-.666-10.936 8.036-20.561 14.542-28.672l.653-.839c1.15-1.5 2.955-3.908 5.01-6.157.33-.986.673-1.967 1.029-2.941-5.049 2.701-12.837.724-12.395-6.271 1.01-22.678 25.105-33.672 32.092-53.715-35.413 31.395-31.635-8.937-6.726-24.623 1.994-1.651 4.052-3.203 6.139-4.706-2.841-1.776-3.72-5.737-1.102-8.602 7.276-7.963 18.34-9.609 28.71-10.479 3.707-.311 7.33-.346 10.976-.061l.996.085.283-.08c2.41-2.822 5.117-5.413 7.698-7.64-19.607-3.701-1.02-32.066 43.783-21.74a88.942 88.942 0 0 1 7.533-3.35c-6.685-.319-13.35-.92-19.966-2.262-5.898-1.197-6.886-9.997-1.683-12.681 20.803-10.28 44.802-7.741 67.089-2.575-.545-1.018-.8-2.15-.811-3.314-7.384-.709-8.038-11.954.462-12.6 14.262-1.085 27.905 1.66 40.505 7.114a58.873 58.873 0 0 1 4.868-.358c2.376-24.793 35.182-4.231 42.395 7.701 14.298-8.872 29.526-15.637 46.036-19.204Z" fill="#000"/></g></g><g transform="translate(315 248)"><g fill-rule="evenodd" clip-rule="evenodd"><path d="M55.597 167.617c3.478-7.851 19.136-20.043 19.136-20.043s4.753 26.977 1.067 35.296c-3.038 6.859-13.98 19.237-22.002 15.756-8.024-3.48-3.918-18.103 1.799-31.009ZM250.249 160.513c-2.859-6.635-15.73-16.939-15.73-16.939s-3.907 22.799-.877 29.83c2.497 5.797 11.491 16.257 18.086 13.316 6.595-2.941 3.221-15.3-1.479-26.207ZM116.954 199.231h87.837l5.255 14.516s-65.546 15.212-88.562 5.42l-4.53-19.936Z" fill="#fff"/><path d="M181.748 171.04c8.124-11.38-3.382-22.083-10.934-26.673-1.978-1.42-.408-6.124 3.82-5.397 38.397 6.597 18.502 72.738-30.522 36.443-5.837-4.709 1.231-15.079 7.522-11.047.319.245.654.503 1.002.773 7.068 5.464 19.999 15.462 29.112 5.901ZM104.465 56.502l-1.877.328c-6.076 1.056-12.086 3.358-17.578 6.134-10.29 5.198-20.563 13.728-25.864 24.11-.575 1.127.655 2.669 1.86 1.86 9.183-6.16 17.944-11.77 28.696-14.843a67.73 67.73 0 0 1 14.879-2.534c1.577-.09 3.123-.052 4.637-.015 4.412.11 8.549.212 12.385-2.892 2.929-2.37 2.179-6.973 0-9.449-4.109-4.669-11.33-3.704-17.138-2.7Zm100.165-4.029-1.437-.294c-1.69-.338-3.389-.195-4.882.412a7.448 7.448 0 0 0-3.631 3.13c-1.185 1.993-1.343 3.665-.793 5.875a6.908 6.908 0 0 0 2.573 3.918c1.284.977 2.91 1.547 4.6 1.746 7.794.915 15.469 2.63 22.932 5.064 3.496 1.14 6.796 2.686 10.066 4.29l2.819 1.388c2.6 1.272 5.286 2.497 8.68 3.387.267.07.53.136.792.198.83-.26 1.052-.57 1.23-.817l.07-.096.081-.102c.242-.304.541-.77.258-2.941-7.405-15.36-27.721-21.889-43.358-25.158Zm-81.351 75.551c-3.038 1.774-6.285.914-8.873-1.145-1.601-1.273-2.815-2.902-4.032-4.534-1.427-1.913-2.858-3.832-4.92-5.189-3.232-2.128-7.564-2.24-11.28-1.625-5.578.924-10.395 3.556-15.226 6.196-2.735 1.495-5.475 2.992-8.36 4.183-1.12.462-1.775-.973-1.399-1.818 4.834-10.864 14.927-20.554 26.933-22.495 12.555-2.03 26.138 6.239 30.521 18.158 1.106 3.007-.731 6.731-3.364 8.269Zm119.284-12.662c.259.096.52-.196.444-.444-3.174-10.326-15.131-14.673-25.166-13.812-6.21.533-11.918 2.804-16.626 6.95-4.49 3.955-7.987 11.439-3.923 16.911 4.179 5.626 12.757 3.807 13.246-3.587.316-4.795 8.567-7.754 12.747-8.492 6.491-1.145 13.206.223 19.278 2.474Zm-116.228 99.045c2.94 1.164 27.8 2.307 42.48 1.637 10.01-.45 35.976-6.518 35.976-9.121 0-2.604-1.106-4.956-2.056-4.857-3.864.417-34.631.756-56.294.995-9.571.105-17.365.191-20.276.255-1.43.031-2.93 0-4.45-.04-1.053 3.258 1.68 9.966 4.62 11.131Zm49.768-18.947c11.556-.101 25.59-.222 35.592.367 3.57.21 5.33 5.31 5.58 7.73 2.37 22.49-15.59 40.43-35.42 47.38-18.4 6.45-42.7 7.67-59.11-4.38-7.13-5.23-12.53-12.48-16.05-20.55-1.9-4.35-3.29-8.86-4.06-13.54-.074-.442-.155-.904-.239-1.38-.592-3.363-1.309-7.435-.161-10.51 1.662-4.423 6.062-4.472 10.104-4.516h.001c.335-.004.667-.007.995-.014 1.627-.033 3.254-.068 4.882-.103h.005c4.29-.093 8.579-.187 12.863-.237 9.223-.104 18.446-.131 27.665-.158 3.206-.01 6.41-.019 9.615-.032 2.378-.011 4.984-.034 7.729-.057h.009Zm-103.68-16.348c-1.502 5.768-4.665 12.475-10.027 15.618-2.87 1.683-7.126 2.303-8.78-1.154-3.085-6.451 1.24-16.398 3.868-22.2 2.203-4.868 4.98-9.513 8.346-13.67 1.846-2.281 3.892-4.375 5.95-6.461.404-.409.838-.787 1.267-1.161.602-.523 1.195-1.04 1.686-1.625-1.507 3.382-1.568 7.796-1.583 11.141-.009 1.808.06 3.614.128 5.418.18 4.729.357 9.436-.855 14.094Zm9.87-32.47c-.247-1.968-2.036-3.278-3.95-2.266-1.112.588-1.975 1.42-2.661 2.397.014-.044.03-.087.045-.129.03-.086.061-.172.083-.265.035-.158-.047-.377-.23-.404-4.428-.665-10.102 5.469-13.223 8.843l-.001.001-.621.67c-4.41 4.722-8.347 10.159-11.054 16.039-3.452 7.501-7.18 18.839-2.437 26.613 6.596 10.812 20.417 2.655 25.657-4.814 4.39-6.258 6.66-13.887 6.915-21.486.075-2.235-.013-4.469-.102-6.703-.083-2.115-.167-4.23-.112-6.346.046-1.775.468-3.561.889-5.339.544-2.298 1.084-4.583.803-6.811Zm158.04 36.344c3.093 2.831 8.467 3.88 12.061 1.209 4.775-3.548.659-10.072-1.975-14.245-.265-.421-.516-.818-.74-1.185a1574.055 1574.055 0 0 1-10.738-17.854c-.642-1.082-1.401-2.216-2.188-3.386-.253 1.686-.573 3.338-.866 4.854-.256 1.326-.493 2.548-.646 3.596-1.297 8.841-2.216 20.323 5.092 27.011Zm12.934-25.443c3.505 5.521 7.185 11.319 8.785 17.403 3.104 11.808-7.142 20.474-18.499 17.938-11.851-2.646-16.251-16.428-16.001-27.193.115-4.956 1.146-9.979 2.148-14.862.137-.669.274-1.336.408-1.999.272-1.353.471-2.755.67-4.165.278-1.965.558-3.947 1.046-5.837-.556-1.536-.883-3.09-.825-4.645.092-2.473 2.573-3.787 4.726-2.712 3.061 1.529 4.654 4.369 6.271 7.253.332.59.664 1.183 1.011 1.767l3.543 5.972 3.544 5.972c.994 1.676 2.075 3.378 3.173 5.108Z" fill="#000"/></g></g><g transform="translate(279 400)"/><g transform="translate(179 343)"/><g transform="translate(203 303)"/></g></svg>