<svg xmlns:dc="http://purl.org/dc/elements/1.1/" xmlns:cc="http://creativecommons.org/ns#" xmlns:rdf="http://www.w3.org/1999/02/22-rdf-syntax-ns#" xmlns:svg="http://www.w3.org/2000/svg" xmlns="http://www.w3.org/2000/svg" viewBox="0 0 24 24" width="60" height="60"><metadata><rdf:RDF><cc:Work><dc:format>image/svg+xml</dc:format><dc:type rdf:resource="http://purl.org/dc/dcmitype/StillImage"/><dc:title>Gridy Avatars</dc:title><dc:creator><cc:Agent><dc:title>Jan Forst</dc:title></cc:Agent></dc:creator><dc:source>https://github.com/darosh/gridy-avatars</dc:source><cc:license rdf:resource="https://github.com/darosh/gridy-avatars/blob/master/LICENSE"/></cc:Work></rdf:RDF></metadata><defs><clipPath id="clip-a-8967424613"><rect width="13" height="24" x="0" y="0"/></clipPath><clipPath id="clip-b-8967424613"><rect width="12" height="24" x="12" y="0"/></clipPath></defs><mask id="avatarsRadiusMask"><rect width="24" height="24" rx="0" ry="0" x="0" y="0" fill="#fff"/></mask><g mask="url(#avatarsRadiusMask)"><g style="fill: #f4511e" clip-path="url(#clip-a-8967424613)"><circle cx="12" cy="12" r="10"/></g><g style="fill: #e64a19" clip-path="url(#clip-b-8967424613)"><circle cx="12" cy="12" r="10"/></g><g style="fill: #81c784" clip-path="url(#clip-a-8967424613)"><path d="M 15.5,11 C 16.33,11 17,10.33 17,9.5 17,8.67 16.33,8 15.5,8 14.67,8 14,8.67 14,9.5 c 0,0.83 0.67,1.5 1.5,1.5 z"/><path d="M 8.5,11 C 9.33,11 10,10.33 10,9.5 10,8.67 9.33,8 8.5,8 7.67,8 7,8.67 7,9.5 7,10.33 7.67,11 8.5,11 Z"/><path d="M 15.5,11 C 16.33,11 17,10.33 17,9.5 17,8.67 16.33,8 15.5,8 14.67,8 14,8.67 14,9.5 c 0,0.83 0.67,1.5 1.5,1.5 z"/></g><g style="fill: #66bb6a" clip-path="url(#clip-b-8967424613)"><path d="M 15.5,11 C 16.33,11 17,10.33 17,9.5 17,8.67 16.33,8 15.5,8 14.67,8 14,8.67 14,9.5 c 0,0.83 0.67,1.5 1.5,1.5 z"/><path d="M 8.5,11 C 9.33,11 10,10.33 10,9.5 10,8.67 9.33,8 8.5,8 7.67,8 7,8.67 7,9.5 7,10.33 7.67,11 8.5,11 Z"/><path d="M 15.5,11 C 16.33,11 17,10.33 17,9.5 17,8.67 16.33,8 15.5,8 14.67,8 14,8.67 14,9.5 c 0,0.83 0.67,1.5 1.5,1.5 z"/></g><g style="fill: #81c784" clip-path="url(#clip-a-8967424613)"><path d="m 12,17.5 c 2.33,0 4.31,-1.46 5.11,-3.5 H 6.89 c 0.8,2.04 2.78,3.5 5.11,3.5 z"/></g><g style="fill: #66bb6a" clip-path="url(#clip-b-8967424613)"><path d="m 12,17.5 c 2.33,0 4.31,-1.46 5.11,-3.5 H 6.89 c 0.8,2.04 2.78,3.5 5.11,3.5 z"/></g></g></svg>