<svg xmlns:dc="http://purl.org/dc/elements/1.1/" xmlns:cc="http://creativecommons.org/ns#" xmlns:rdf="http://www.w3.org/1999/02/22-rdf-syntax-ns#" xmlns:svg="http://www.w3.org/2000/svg" xmlns="http://www.w3.org/2000/svg" viewBox="0 0 256 256" fill="none" width="60" height="60"><metadata><rdf:RDF><cc:Work><dc:format>image/svg+xml</dc:format><dc:type rdf:resource="http://purl.org/dc/dcmitype/StillImage"/><dc:title>Croodles - Doodle your face</dc:title><dc:creator><cc:Agent><dc:title>vijay verma</dc:title></cc:Agent></dc:creator><dc:source>https://www.figma.com/community/file/966199982810283152</dc:source><cc:license rdf:resource="https://creativecommons.org/licenses/by/4.0/"/></cc:Work><cc:License rdf:about="https://creativecommons.org/licenses/by/4.0/"><cc:permits rdf:resource="https://creativecommons.org/ns#Reproduction"/><cc:permits rdf:resource="https://creativecommons.org/ns#Distribution"/><cc:permits rdf:resource="https://creativecommons.org/ns#DerivativeWorks"/><cc:requires rdf:resource="https://creativecommons.org/ns#Notice"/><cc:requires rdf:resource="https://creativecommons.org/ns#Attribution"/></cc:License></rdf:RDF></metadata><mask id="avatarsRadiusMask"><rect width="256" height="256" rx="0" ry="0" x="0" y="0" fill="#fff"/></mask><g mask="url(#avatarsRadiusMask)"><g><path d="M175.975 91.198c.119.126.212.267.278.417.374.1.707.346.907.712 3.744 6.851 6.698 16.624 8.105 27.643 4.651-1.535 11.735 1.979 11.735 10.099 0 3.874-.279 6.651-.926 8.927-.658 2.313-1.674 4.028-3.013 5.804-1.966 2.607-5.261 3.419-7.801 3.334-2.446 18.548-10.12 37.085-26.107 49.17-12.247 9.257-25.265 12.803-37.177 11.4-11.913-1.404-22.593-7.746-30.16-18.023-9.933-13.488-16.337-28.232-19.484-42.236-1.539.121-3.79-.055-6.033-1.227-2.97-1.55-5.69-4.72-6.812-10.603-1.02-5.344-.43-9.946 1.693-12.964 1.077-1.531 2.54-2.634 4.32-3.159 1.52-.447 3.193-.452 4.952-.034 1.185-10.605 4.788-19.619 10.75-25.548.092-.09.192-.167.299-.23 3.23-3.896 8.358-7.44 14.51-10.354 7.471-3.538 16.637-6.235 26.251-7.512 19.152-2.544 40.524.507 53.713 14.384Z" fill="rgba(255, 255, 255, 0)"/><g stroke="#000" stroke-width="3" stroke-linecap="round" stroke-linejoin="round"><path d="M81.26 95c-17 17-15 61 11 96.5 15.013 20.5 42.215 25.128 66.724 6.5 34.478-26.205 30.499-83 17.999-106"/><path d="M186.367 121.414c3.607-1.866 10.718.813 10.718 8.667 0 7.853-1.131 10.781-3.727 14.242-1.917 2.556-5.524 3.128-7.86 2.714M69.655 121.881c-7.607-2.389-12.19 4.071-10.183 14.649 2.153 11.351 10.183 11.316 12.493 10.81"/></g><g transform="translate(112 123)"><path d="M21.738 10c4.916 3.966 11.94 22.935 5.97 28.98-5.97 6.046-8.678-4.656-13.806-4.656-5.127 0-9.034 5.918-8.513-1.062.416-5.583 4.035-5.499 4.729-5.763" stroke="#000" stroke-width="3" stroke-linecap="round" stroke-linejoin="round"/></g><g transform="translate(60 128)"/><g transform="translate(95 180)"><g stroke="#000" stroke-width="3" stroke-linecap="round" stroke-linejoin="round"><path d="M54.254 13.735c4.915-9.399-1.372-9.996-6.517-7.424-2.417 1.208-14.6 4.267-23.49 2.403-6.452-2.437-9.806-6.733-10.243 4.184-.438 10.917 36.17 8.642 40.25.837Z"/><path d="M15.169 11.877c7.97 2.77 26.97 5.86 39.215-3.936M23.902 10.969l-.861 5.645M30.84 12.387l-.51 6.195M37.44 11.66l.872 6.441M45.273 9.8l1.409 7.064"/></g></g><g transform="translate(-1 -13)"><g stroke="#000" stroke-linecap="round" stroke-linejoin="round"><path d="m81.9 98.039 7.631 9.275-7.63-16.342 12.501 17.814-11.13-24.733 19.41 26.206-6.819-19.287c5.737 8.294 16.982 24.174 16.073 21.348-.909-2.827-5.682-12.858-7.955-17.52l17.371 18.992-6.332-17.814 13.8 16.342-2.518-13.03 9.986 10.969-2.273-15.459 10.066 15.459-5.033-18.11 13.151 16.637-4.546-19.139 12.014 17.667-5.358-19.58 10.878 18.255-5.52-19.728 11.039 17.961-5.519-20.17 11.039 17.962-5.52-19.875" stroke-width="6"/><path d="M54.016 65.587C76.893 54.391 124.985 32 134.33 32c9.346 0 51.597 15.577 71.554 23.365l-81.776 43.808L57.831 63.73" stroke-width="3"/><path d="m195.787 57.126-4.196-5.216-3.146 10.985-3.147-13.748-5.769 18.468-2.098-21.692-6.555 27.46c.786-7.157 1.888-23.105 0-29.63-2.36-8.158-3.471 30.836-5.831 23.862-1.888-5.58-3.085-22.08-3.871-27.271v35.972l-7.08-37.3V80.2l-5.507-43.004-3.143 46.026-5.51-47.862L136 91.512l-3.933-56.15-2.392 59.516-6.262-57.681-2.449 57.68-4.576-55.861-5.261 52.496-2.656-49.733-4.832 44.954-3.48-40.81-3.564 37.3-1.978-34.076L89.244 80.2 87.493 51.91c-1.056 7.828-3.563 23.669-5.146 24.406-1.98.92-1.768-11.768-1.372-20.056.317-6.632-2.982 5.78-5.357 13.609L72.542 58.96l-2.36 8.654-4.195-4.72" stroke-width="6"/><path d="M79.111 76.473v27.526c0 3.233 34.557 12.122 42.41 12.122 6.284 0 40.317-8.081 56.548-12.122V71.731M55.776 67.042 50 108.526M56.301 66.358v40.067M56.97 66.357l3.532 37.967" stroke-width="3"/></g></g><g transform="translate(67 152)"/><g transform="translate(71 102)"><g stroke-width="3" stroke-linecap="round" stroke-linejoin="round"><path d="M35.343 28.88c-2.382.126-7.346 1.43-8.148 5.64-1.003 5.265 2.131 7.396 3.26 7.897 1.127.502 8.272 1.88 9.149-3.008.877-4.888-1.504-8.273-2.883-8.9-1.378-.626-5.64 1.63-6.267 4.012-.627 2.381-2.632 3.384 0 4.888s4.512 3.51 6.267.501c1.755-3.008 1.379-6.643 0-6.893-1.378-.251-4.512.626-4.512 2.506s.376 4.889 1.378 3.886c.803-.802 1.505-2.925 1.755-3.886M84.526 26.953c-2.382.126-7.345 1.43-8.147 5.64-1.003 5.265 2.13 7.396 3.259 7.897 1.128.502 8.272 1.88 9.15-3.008.877-4.888-1.505-8.273-2.883-8.9-1.379-.626-5.64 1.63-6.267 4.012-.627 2.381-2.632 3.384 0 4.888s4.512 3.51 6.267.501c1.754-3.008 1.378-6.643 0-6.893-1.379-.251-4.513.626-4.513 2.506s.376 4.889 1.38 3.886c.801-.802 1.503-2.925 1.754-3.886" stroke="#000"/><path d="M85.38 37.335s0 0 0 0M32.167 34.618c-.39.078-1.209.178-.936.859.273.68 1.327.529 1.58 0 .254-.529-.253-1.717-.253-1.717M81.35 32.691c-.39.078-1.208.178-.936.859.273.68 1.327.529 1.58 0 .254-.529-.253-1.717-.253-1.717" stroke="#fff"/><path d="M27.505 21.785c1.071-1.26 3.781-3.403 6.05-1.89M77.934 17.968c1.071-1.261 4.276-1.32 4.806 0" stroke="#000"/></g></g></g></g></svg>